<svg xmlns="http://www.w3.org/2000/svg" viewBox="0 0 221.29 239.1"><defs><style>.cls-1{fill:#010101;}.cls-2{fill:#fff;opacity:0.6;}.cls-3{fill:none;stroke:#363795;stroke-miterlimit:10;stroke-width:6px;}.cls-4{fill:#363795;}</style></defs><g id="Layer_2" data-name="Layer 2"><g id="Layer_1-2" data-name="Layer 1"><g id="g3236"><g id="g3246"><path id="path3248" class="cls-1" d="M220.55,162c-1.74-11.32-7.05-21.31-8.69-24.42s-3.77-9.35-3.17-18.1S205.3,85.43,185,69.2s-39.11-21.28-41.63-23c-2.74-1.81-13.77-6.89-16.38-8.1S113.83,35.59,109.11,35,99.4,36.08,97.49,36.1s-12.67-3.29-14.31-3.29-.66,1.64-.5,2.62,3.63,7.41,3.63,7.41-3.79,0-4,.79S86.86,48,86.86,48s-2.21,7.15-2.32,8.76,2.08,7.08,2.41,8.55a24,24,0,0,1,0,4.92l1.63,1.66s2.79,2,3.45,2.28a8.06,8.06,0,0,0,2.86-.05c1.72.61,7.3-2.41,10.25-4.22a19,19,0,0,1,8.23-2.3c1.19,0,2.26,3.78,2.21,5A55.29,55.29,0,0,0,117,79.85c.32,1.48-1.53,4.42-1.53,4.42a48.82,48.82,0,0,0-5.52-2.12c-1.48-.49-6.07-3.77-7.38-4.1s-2.46-.49-4.79-1.13-10-2.31-11.6-2.1-5.9,2.57-6.51,5,2.74,4.8,4,5.29,5.41-.49,6.85-.34a3.81,3.81,0,0,1,2.36,1.33c5.12.18,7.51,3.27,10.46,5.89s16.88,10.33,18.85,10.66,7.38-1,7.38-1,1.64,6.62,2.29,10.56-2.13,16.72-2.46,19.18-.41,5.57-1,6.39c-.5.67-1,.53-3.75.94-3.25.5-6.83,5.29-6.7,7.42.16,2.62,3,3.41,4.28,3.41h4.49c2,0,7.54-.79,7.54-.79l8.85.79h53.46c5.34,0,10.63,10.88,11.54,19,1,8.85-5.17,31.94-9,40.16-3.6,7.71-11.56,16.38-19.18,18-12.78,2.79-21.47-5.57-27.86-4.42-5.82,1-4.59,7.54-2,10.16,2.42,2.42,23.29,9.63,37,5.25,14.92-4.76,23.83-22.18,28.69-36.23,4.6-13.29,6.73-26.73,4.76-39.52M150.5,137.51c-3.12,1.15-5.74,3-7.71,2.46s-2.79,1-4.43.49a52.39,52.39,0,0,1,3.28-7.73c1.64-2.8,3.85-11.95,3.85-11.95.56,3.44,3.86,8.86,6.32,12.14s1.8,3.44-1.31,4.59"/></g></g><circle class="cls-2" cx="113.08" cy="59.99" r="56.99" transform="translate(-4.43 110.78) rotate(-51.32)"/><circle class="cls-3" cx="113.08" cy="59.99" r="56.99" transform="matrix(0.62, -0.78, 0.78, 0.62, -4.43, 110.78)"/><path class="cls-4" d="M66.38,99s8.19,12.45,18.23,14.6-66.37,82.91-66.37,82.91-14-2.72-18.24-14.6C0,181.87,59.26,96.21,66.38,99Z"/></g></g></svg>