<?xml version="1.0" standalone="no"?>
<!DOCTYPE svg PUBLIC "-//W3C//DTD SVG 1.0//EN" "http://www.w3.org/TR/2001/REC-SVG-20010904/DTD/svg10.dtd">
<svg xmlns="http://www.w3.org/2000/svg" xmlns:xlink="http://www.w3.org/1999/xlink" id="body_1" width="160" height="120">

<defs>
        <clipPath  id="1">

            <path clip-rule="evenodd" transform="matrix(1 0 0 1 -38.13 -40.68)"  d="M32.23 39.55L192.23 39.55L192.23 199.55L32.23 199.55z" />        </clipPath>
</defs>

<g transform="matrix(0.760842 0 0 0.760842 24.83895 -0)">
	<g clip-path="url(#1)" >
		<g>
			<g>
				<g>
					<g>
                        <path transform="matrix(1 0 0 1 -38.13 -40.68)"  d="M182.67 147.88C 181.64984 142.27295 179.72473 136.86911 176.97 131.88C 175.21715 128.18031 174.4984 124.07515 174.89 120C 175.29 114.26 172.67 97.68 159.37 87C 146.06999 76.32 133.74 73.12 132.09 72C 130.29 70.81 123.09 67.49 121.35 66.69C 119.61 65.89001 112.729996 65.05 109.63 64.69C 106.53 64.33 103.27 65.4 102.02 65.41C 100.77 65.420006 93.71 63.260002 92.64 63.260002C 91.57 63.260002 92.21 64.33 92.31 64.97C 93.01814 66.63037 93.812546 68.25255 94.689995 69.83C 94.689995 69.83 92.20999 69.83 92.06999 70.35C 91.92999 70.869995 95.06999 73.21 95.06999 73.21C 94.46479 75.095825 93.95743 77.0118 93.549995 78.95C 93.479996 80.009995 94.909996 83.59 95.13 84.549995C 95.23998 85.623856 95.23998 86.70613 95.13 87.78L95.13 87.78L96.2 88.869995C 96.2 88.869995 98.03 90.17999 98.46 90.35999C 99.07848 90.469986 99.711525 90.469986 100.33 90.35999C 101.46 90.759995 105.12 88.77999 107.05 87.59C 108.7096 86.687546 110.5528 86.17459 112.44 86.09C 113.22 86.09 113.93 88.56 113.89 89.35999C 114.09671 90.924034 114.40064 92.47373 114.8 94C 115.01 95 113.8 96.9 113.8 96.9C 112.62347 96.361725 111.41445 95.89749 110.18 95.51C 109.18 95.19 106.18 93.04 105.35 92.82C 104.52 92.6 103.729996 92.5 102.21 92.08C 100.69 91.66 95.65 90.57 94.61 90.71C 93.57 90.85 90.74 92.43 90.34 94C 89.939995 95.57 92.13 97.15 92.96 97.47C 93.79 97.79 96.51 97.15 97.45 97.25C 98.05549 97.34122 98.60675 97.650635 99 98.12C 102.35 98.240005 103.92 100.26 105.85 101.98C 107.78 103.700005 116.909996 108.75 118.2 108.98C 119.49 109.21001 123.03999 108.32 123.03999 108.32C 123.03999 108.32 124.119995 112.66 124.53999 115.24C 124.95999 117.81999 123.149994 126.24 122.92999 127.81C 122.70999 129.38 122.659996 131.45999 122.26999 132C 121.87998 132.54001 121.61999 132.35 119.81999 132.61C 117.689995 132.94 115.33999 136.08 115.42999 137.48C 115.52999 139.19 117.42999 139.70999 118.229996 139.70999L118.229996 139.70999L121.17 139.70999C 122.479996 139.70999 126.17 139.18999 126.17 139.18999L126.17 139.18999L131.95999 139.70999L166.95999 139.70999C 170.45999 139.70999 173.95999 146.84 174.51999 152.15999C 175.18 157.95999 171.12999 173.09999 168.62 178.47998C 166.26999 183.53998 161.04999 189.21999 156.06 190.27998C 147.68 192.10999 141.98 186.62999 137.8 187.37999C 133.98 188.04 134.8 192.31999 136.49 194.04C 138.18001 195.76 151.75 200.34999 160.73001 197.48C 170.51001 194.36 176.35 182.95 179.54001 173.73999C 182.54001 165.02998 183.95001 156.21999 182.66 147.84M136.77 131.84C 134.77 132.59999 133.01001 133.84 131.77 133.45C 130.53 133.06 129.94 134.11 128.86 133.77C 129.43765 132.02591 130.15326 130.33052 131 128.7C 132.08 126.86 133.52 120.869995 133.52 120.869995C 133.89 123.119995 136.05 126.67 137.67 128.81999C 139.29 130.96999 138.84999 131.07999 136.81 131.81999" stroke="none" fill="#010101" fill-rule="nonzero" />
					</g>
				</g>
                <path d="M111.45 40.35C 111.450005 50.663918 107.80348 59.467396 100.51044 66.76044C 93.2174 74.05348 84.413925 77.7 74.1 77.7C 63.786083 77.7 54.982605 74.05348 47.68956 66.76044C 40.396523 59.467396 36.75 50.663918 36.75 40.35C 36.75 30.036083 40.396523 21.232603 47.68956 13.939562C 54.982605 6.6465206 63.786083 3 74.1 3C 84.413925 3 93.2174 6.6465206 100.51044 13.939562C 107.80348 21.232603 111.450005 30.036083 111.45 40.35C 111.450005 40.78463 111.44242 41.21913 111.427246 41.653496" stroke="none" fill="#FFFFFF" fill-rule="nonzero" fill-opacity="0.6" />
                <path d="M110.92 40.2C 110.920006 50.47526 107.287155 59.245743 100.02144 66.511444C 92.75574 73.77715 83.98526 77.41 73.71 77.41C 63.434742 77.41 54.66426 73.77715 47.39856 66.511444C 40.132854 59.245743 36.5 50.47526 36.5 40.2C 36.5 29.924744 40.132854 21.154263 47.39856 13.888559C 54.66426 6.622854 63.434742 2.9900017 73.71 2.9900017C 83.98526 2.9900017 92.75574 6.622854 100.02144 13.888559C 107.287155 21.154263 110.920006 29.924744 110.92 40.2C 110.920006 40.633003 110.912445 41.065872 110.89733 41.49861" stroke="#363795" stroke-width="5.98" fill="none" />
                <path transform="matrix(1 0 0 1 -38.13 -40.68)"  d="M81.63 106.59C 81.63 106.59 87 114.75 93.63 116.159996C 100.259995 117.56999 50.129997 170.5 50.129997 170.5C 50.129997 170.5 40.96 168.71 38.179996 160.93C 38.13 160.9 77 104.77 81.63 106.59z" stroke="none" fill="#363795" fill-rule="nonzero" />
			</g>
		</g>
	</g>
</g>
</svg>